<svg width="28" height="28" viewBox="0 0 28 28" fill="none" xmlns="http://www.w3.org/2000/svg">
<path d="M14 0.4375C11.3176 0.4375 8.69543 1.23293 6.46509 2.72319C4.23474 4.21346 2.4964 6.33163 1.46989 8.80986C0.443376 11.2881 0.174794 14.015 0.698106 16.6459C1.22142 19.2768 2.51312 21.6934 4.40987 23.5901C6.30662 25.4869 8.72323 26.7786 11.3541 27.3019C13.985 27.8252 16.7119 27.5566 19.1902 26.5301C21.6684 25.5036 23.7865 23.7653 25.2768 21.5349C26.7671 19.3046 27.5625 16.6824 27.5625 14C27.5585 10.4042 26.1283 6.95692 23.5857 4.41434C21.0431 1.87176 17.5958 0.441553 14 0.4375ZM14 26.6875C11.4907 26.6875 9.03766 25.9434 6.95121 24.5493C4.86476 23.1552 3.23857 21.1736 2.27828 18.8553C1.318 16.537 1.06674 13.9859 1.55629 11.5248C2.04584 9.06366 3.25421 6.80296 5.02859 5.02858C6.80297 3.2542 9.06366 2.04584 11.5248 1.55629C13.9859 1.06674 16.537 1.31799 18.8553 2.27828C21.1736 3.23857 23.1552 4.86475 24.5493 6.9512C25.9434 9.03765 26.6875 11.4907 26.6875 14C26.6836 17.3637 25.3456 20.5886 22.9671 22.9671C20.5886 25.3456 17.3637 26.6836 14 26.6875Z" fill="#85F193"/>
<path d="M12.25 13.125C12.25 13.8172 12.4553 14.4939 12.8399 15.0695C13.2244 15.6451 13.7711 16.0937 14.4106 16.3586C15.0501 16.6235 15.7539 16.6928 16.4328 16.5577C17.1117 16.4227 17.7354 16.0894 18.2249 15.5999C18.7144 15.1104 19.0477 14.4867 19.1827 13.8078C19.3178 13.1289 19.2485 12.4251 18.9836 11.7856C18.7187 11.1461 18.2701 10.5994 17.6945 10.2149C17.1189 9.83027 16.4422 9.625 15.75 9.625C14.8221 9.62604 13.9324 9.99513 13.2763 10.6513C12.6201 11.3074 12.251 12.1971 12.25 13.125ZM15.75 10.5C16.2692 10.5 16.7767 10.654 17.2084 10.9424C17.6401 11.2308 17.9765 11.6408 18.1752 12.1205C18.3739 12.6001 18.4258 13.1279 18.3246 13.6371C18.2233 14.1463 17.9733 14.614 17.6062 14.9812C17.239 15.3483 16.7713 15.5983 16.2621 15.6996C15.7529 15.8008 15.2251 15.7489 14.7455 15.5502C14.2658 15.3515 13.8558 15.0151 13.5674 14.5834C13.279 14.1517 13.125 13.6442 13.125 13.125C13.1257 12.429 13.4025 11.7617 13.8946 11.2696C14.3867 10.7775 15.054 10.5007 15.75 10.5Z" fill="#85F193"/>
<path d="M20.7769 7.25898C20.5398 7.19928 20.3202 7.08432 20.136 6.9235C19.9519 6.76268 19.8084 6.56056 19.7173 6.33367C19.5389 5.88372 19.2291 5.49793 18.8283 5.22659C18.4275 4.95525 17.9543 4.81095 17.4703 4.81248C16.6793 4.81179 15.9018 5.01684 15.2141 5.40748L14.928 5.1218L13.6155 3.8093C13.1373 3.33113 12.4888 3.0625 11.8125 3.0625C11.1363 3.0625 10.4878 3.33113 10.0096 3.8093L6.87183 6.94705C6.47036 7.34765 6.21432 7.87095 6.14441 8.43377C6.07449 8.9966 6.19471 9.56664 6.48596 10.0533C6.47422 10.0572 6.46224 10.0602 6.45008 10.0625C6.13184 10.0628 5.82673 10.1894 5.60174 10.4145C5.37675 10.6396 5.25025 10.9447 5.25002 11.263V11.5425C4.98516 11.6821 4.76359 11.8916 4.60933 12.1482C4.45508 12.4048 4.37405 12.6987 4.37502 12.9981C4.37544 13.4372 4.47772 13.8701 4.67383 14.2629C4.76499 14.4457 4.81247 14.6471 4.81252 14.8514C4.8145 14.9898 4.83827 15.1271 4.88296 15.2582L4.65546 15.4289C4.43125 15.5982 4.24962 15.8175 4.12499 16.0694C4.00037 16.3212 3.93618 16.5986 3.93752 16.8796C3.93631 17.2841 4.06278 17.6786 4.2989 18.007C4.06115 18.5717 3.9383 19.1781 3.93752 19.7907V20.125C3.93803 20.5325 4.08052 20.9272 4.3405 21.2411C4.60047 21.5549 4.96169 21.7684 5.36202 21.8448L5.44952 22.1073C5.55375 22.4223 5.75478 22.6963 6.02394 22.8903C6.29309 23.0842 6.61663 23.1882 6.9484 23.1875C7.20234 23.1885 7.45258 23.2484 7.67946 23.3625C8.02829 23.5353 8.41235 23.6252 8.80165 23.625C9.41103 23.6244 10.012 23.4826 10.5573 23.2107C10.6308 23.1738 10.7069 23.1422 10.7848 23.1162L10.9861 23.0492C11.3496 22.927 11.6799 22.7223 11.9511 22.4511C12.2223 22.1799 12.427 21.8496 12.5493 21.486C12.554 21.4719 12.563 21.4596 12.5751 21.4509C12.5872 21.4421 12.6017 21.4375 12.6166 21.4375C12.848 21.437 13.0711 21.3515 13.2436 21.1973C13.168 21.4154 13.1279 21.6442 13.125 21.875C13.1257 22.4549 13.3564 23.0109 13.7665 23.421C14.1766 23.8311 14.7326 24.0618 15.3125 24.0625C17.9804 24.0596 20.5381 22.9985 22.4246 21.112C24.311 19.2256 25.3721 16.6678 25.375 14C25.3742 13.4901 25.1953 12.9965 24.8692 12.6045C24.5431 12.2125 24.0904 11.9468 23.5891 11.8532C23.6101 11.5377 23.625 11.2214 23.625 10.9064C23.6259 10.0677 23.3459 9.25282 22.8297 8.59175C22.3135 7.93068 21.5908 7.46148 20.7769 7.25898ZM18.9048 6.65873C19.0477 7.01447 19.2729 7.33127 19.5618 7.58315C19.8508 7.83503 20.1954 8.0148 20.5673 8.10773C21.1914 8.26363 21.7453 8.62386 22.1408 9.13105C22.5364 9.63824 22.7508 10.2632 22.75 10.9064C22.75 11.2267 22.7343 11.5482 22.7106 11.8689C22.2259 11.9772 21.7925 12.2472 21.4816 12.6345C21.1707 13.0218 21.0009 13.5033 21 14C20.9983 15.5079 20.3985 16.9535 19.3323 18.0197C18.266 19.086 16.8204 19.6857 15.3125 19.6875C14.9331 19.6897 14.561 19.7919 14.2336 19.9837C13.8841 20.0769 13.524 20.1244 13.1622 20.125C12.6884 20.1245 12.234 19.9361 11.899 19.601C11.5639 19.266 11.3755 18.8116 11.375 18.3378C11.3739 16.8461 10.8509 15.4017 9.89671 14.255C9.43877 13.7049 9.18786 13.0117 9.18752 12.2959C9.18369 11.4906 9.44157 10.7059 9.92234 10.0598C10.4031 9.41371 11.0807 8.9413 11.8532 8.71367C12.8394 8.41648 13.7369 7.88026 14.466 7.15267L14.8431 6.77555C15.1873 6.42945 15.5967 6.15507 16.0477 5.96831C16.4986 5.78154 16.9822 5.68609 17.4703 5.68748C17.7793 5.6865 18.0814 5.77863 18.3373 5.95188C18.5932 6.12513 18.791 6.37145 18.9048 6.65873ZM14.4861 5.91848C14.3986 5.99505 14.3071 6.07248 14.2236 6.15692L13.8465 6.53405C13.2203 7.1592 12.4493 7.61985 11.6021 7.87498C10.8837 8.08675 10.2282 8.47133 9.69288 8.99506C9.15754 9.5188 8.75871 10.1657 8.53127 10.8793C8.34908 10.5627 8.27676 10.1948 8.32559 9.83278C8.37442 9.47081 8.54165 9.13516 8.80121 8.87817L11.939 5.74042C12.2531 5.4264 12.6791 5.24999 13.1233 5.24999C13.5674 5.24999 13.9934 5.4264 14.3076 5.74042L14.4861 5.91848ZM7.49046 7.56567L10.6282 4.42792C10.9329 4.12168 11.3448 3.9459 11.7768 3.93774C12.2087 3.92957 12.6269 4.08966 12.943 4.38417C12.3328 4.4292 11.7587 4.6908 11.3243 5.1218L8.18652 8.25955C7.75275 8.69206 7.49052 9.26719 7.44846 9.8783C7.15415 9.5621 6.9942 9.14394 7.00236 8.71205C7.01053 8.28016 7.18616 7.86833 7.49221 7.56348L7.49046 7.56567ZM5.6779 12.3064C5.81263 12.2396 5.92593 12.1363 6.00496 12.0083C6.08398 11.8803 6.12558 11.7328 6.12502 11.5824V11.263C6.12502 11.1767 6.15925 11.094 6.2202 11.033C6.28115 10.9719 6.36383 10.9376 6.45008 10.9375C6.67111 10.9363 6.88743 10.8735 7.07483 10.7564L8.18433 11.8654L8.32433 12.0054C8.31821 12.1017 8.31252 12.1984 8.31252 12.2959C8.31384 12.7122 8.38118 13.1257 8.51202 13.5209L7.22533 12.7487L6.77471 13.4986L9.44346 15.099C9.91823 15.7511 10.244 16.4995 10.3976 17.2913C10.3679 17.3049 10.3351 17.3114 10.3062 17.3259C10.0096 17.4725 9.67506 17.5242 9.34805 17.4739C9.02104 17.4235 8.7175 17.2736 8.47877 17.0445C8.20806 16.7761 7.84237 16.6253 7.46115 16.625C7.33888 16.6249 7.22166 16.5762 7.13521 16.4898C7.04876 16.4033 7.00014 16.2861 7.00002 16.1639C6.99979 15.9381 6.91002 15.7217 6.7504 15.5621C6.59079 15.4025 6.37437 15.3127 6.14865 15.3125C6.02638 15.3124 5.90916 15.2637 5.82271 15.1773C5.73626 15.0908 5.68764 14.9736 5.68752 14.8514C5.6871 14.5113 5.60804 14.1758 5.45652 13.8714C5.32071 13.5997 5.25002 13.3001 5.25002 12.9964C5.25 12.8529 5.29004 12.7123 5.36564 12.5904C5.44124 12.4685 5.54939 12.3702 5.6779 12.3064ZM11.7193 21.2095C11.6403 21.4443 11.508 21.6575 11.3328 21.8326C11.1576 22.0077 10.9443 22.1399 10.7096 22.2189L10.5079 22.2858C10.3908 22.3254 10.2765 22.3729 10.1658 22.428C9.74199 22.6391 9.27511 22.7493 8.80165 22.75C8.5477 22.749 8.29746 22.6891 8.07058 22.575C7.72175 22.4022 7.33769 22.3123 6.9484 22.3125C6.80051 22.3128 6.65631 22.2664 6.53629 22.18C6.41627 22.0936 6.32655 21.9716 6.2799 21.8312L6.10227 21.3001C6.07342 21.2129 6.01782 21.1369 5.94338 21.083C5.86893 21.0292 5.77941 21.0001 5.68752 21C5.45546 21 5.2329 20.9078 5.0688 20.7437C4.90471 20.5796 4.81252 20.357 4.81252 20.125V19.7907C4.81343 19.2154 4.94745 18.648 5.20408 18.133C5.24508 18.0509 5.25919 17.9579 5.24443 17.8673C5.22967 17.7767 5.18678 17.6931 5.12183 17.6282C5.02186 17.5278 4.943 17.4084 4.88987 17.2771C4.83675 17.1457 4.81045 17.0051 4.81252 16.8634C4.81266 16.7209 4.84593 16.5804 4.90971 16.453C4.97349 16.3256 5.06603 16.2148 5.18002 16.1293L5.40927 15.9578C5.62068 16.0991 5.87083 16.1711 6.12502 16.1639C6.12537 16.5181 6.26625 16.8578 6.51675 17.1083C6.76724 17.3588 7.10689 17.4996 7.46115 17.5C7.61005 17.5004 7.75279 17.5595 7.8584 17.6645C8.0582 17.861 8.29061 18.0213 8.54527 18.1383L6.93527 18.3798L7.06652 19.2452L8.26702 19.0654L7.90783 19.9627L8.72071 20.2873L9.26977 18.9149L10.5333 18.7254C10.561 18.9161 10.6097 19.1032 10.6785 19.2832L10.0918 20.846L10.9117 21.1522L11.2678 20.202C11.4941 20.431 11.7599 20.6172 12.0523 20.7519C11.8969 20.8666 11.7806 21.0264 11.7193 21.2095ZM24.5 14C24.4972 16.4358 23.5284 18.7711 21.806 20.4935C20.0836 22.2158 17.7483 23.1847 15.3125 23.1875C14.9644 23.1875 14.6306 23.0492 14.3844 22.8031C14.1383 22.5569 14 22.2231 14 21.875C14 21.5269 14.1383 21.193 14.3844 20.9469C14.6306 20.7008 14.9644 20.5625 15.3125 20.5625C15.3475 20.5625 15.3816 20.5577 15.4166 20.5572C15.5607 21.1721 15.8718 21.7352 16.3157 22.1843L16.9343 21.5657C16.6331 21.2633 16.4122 20.8905 16.2916 20.4811C16.9195 20.3871 17.5302 20.2015 18.1042 19.9303C18.2697 20.4498 18.5564 20.9225 18.9407 21.3093L19.5593 20.6907C19.2325 20.3593 19.0022 19.9449 18.8935 19.4924C19.4133 19.1517 19.8824 18.7393 20.2869 18.2674C20.5284 18.6256 20.8366 18.934 21.1947 19.1756L21.6803 18.4476C21.3277 18.2104 21.0416 17.8871 20.8491 17.5083C21.1967 16.9616 21.461 16.3662 21.6331 15.7417C21.9989 16.2267 22.4424 16.6478 22.9456 16.9881L23.4312 16.2601C22.7564 15.8083 22.2121 15.1872 21.8527 14.4589C21.8632 14.3062 21.8759 14.1527 21.8759 13.9991C21.8759 13.651 22.0142 13.3172 22.2603 13.071C22.5065 12.8249 22.8403 12.6866 23.1884 12.6866C23.5365 12.6866 23.8703 12.8249 24.1165 13.071C24.3626 13.3172 24.5009 13.651 24.5009 13.9991L24.5 14Z" fill="#85F193"/>
</svg>
